<?xml version="1.0" encoding="utf-8"?>
<!-- Generator: Adobe Illustrator 27.5.0, SVG Export Plug-In . SVG Version: 6.00 Build 0)  -->
<svg version="1.1" id="Layer_1" xmlns="http://www.w3.org/2000/svg" xmlns:xlink="http://www.w3.org/1999/xlink" x="0px" y="0px"
	 viewBox="0 0 3840 2160" style="enable-background:new 0 0 3840 2160;" xml:space="preserve">
<g>
	<defs>
		<rect id="SVGID_1_" width="3840" height="2160"/>
	</defs>
	<clipPath id="SVGID_00000083076080498169439290000013327907006718554269_">
		<use xlink:href="#SVGID_1_"  style="overflow:visible;"/>
	</clipPath>
	<g style="clip-path:url(#SVGID_00000083076080498169439290000013327907006718554269_);">
		
			<radialGradient id="SVGID_00000054231646847872159950000017593209973397030064_" cx="15433.207" cy="21309.3594" r="1935.5492" gradientTransform="matrix(-1.5019 -0.8049 -1.2734 -2.9041 51463.0039 78421.3047)" gradientUnits="userSpaceOnUse">
			<stop  offset="0" style="stop-color:#0049D4"/>
			<stop  offset="1" style="stop-color:#FFFFFF"/>
		</radialGradient>
		<path style="opacity:0.62;fill:url(#SVGID_00000054231646847872159950000017593209973397030064_);" d="M6443.1,10204.779
			c-361.24-366.455-4284.279-1339.212-2020.988-2871.244C5949.564,6299.595-15.165,1962.927-385.734,1261.721
			c-307.833-582.494,1625.599-704.224,873.952-786.235c-2146.562-234.208-2961.783,1169.985-2326.028,2820.219
			C-1308.051,4670.806,6749.346,10515.445,6443.1,10204.779z"/>
		
			<radialGradient id="SVGID_00000163038604342184241290000017445928122125850753_" cx="15614.5996" cy="20800.2422" r="1988.7061" gradientTransform="matrix(-1.3601 -0.8132 -1.0057 -2.5401 43393.25 69583.0469)" gradientUnits="userSpaceOnUse">
			<stop  offset="0" style="stop-color:#0049D4"/>
			<stop  offset="1" style="stop-color:#FFFFFF"/>
		</radialGradient>
		<path style="opacity:0.62;fill:url(#SVGID_00000163038604342184241290000017445928122125850753_);" d="M105.97,339.138
			c717.742,76.863-793.121,369.214-455.297,759.412C94.05,1610.664,5766.477,6112.677,4383.61,7095.623
			C2326.221,8558.022,5669.885,9589.865,5969.761,9960.551c254.426,314.505-6902.363-5428.996-7487.948-6806.554
			C-2202.385,1544.454-1904.037,121.058,105.97,339.138z"/>
		
			<radialGradient id="SVGID_00000052802183628166115170000008944905486175604361_" cx="15569.7236" cy="20126.8926" r="2125.396" gradientTransform="matrix(-1.2183 -0.8214 -0.7379 -2.1761 35324.2031 60745.4219)" gradientUnits="userSpaceOnUse">
			<stop  offset="0" style="stop-color:#0049D4"/>
			<stop  offset="1" style="stop-color:#FFFFFF"/>
		</radialGradient>
		<path style="opacity:0.62;fill:url(#SVGID_00000052802183628166115170000008944905486175604361_);" d="M-235.733,202.868
			c683.837,71.716-477.971,604.959-36.642,732.588c411.094,405.308,5896.938,4990.081,4658.027,5922.332
			C2534.981,8250.376,5299.098,9342.641,5536.965,9716.4c203.287,319.423-6052.276-5323.943-6694.984-6704.034
			C-1888.724,1443.319-2109.186,0.915-235.733,202.868z"/>
		
			<radialGradient id="SVGID_00000095322984843928593950000013795234546885831840_" cx="15323.2354" cy="19280.6738" r="2334.0056" gradientTransform="matrix(-1.0764 -0.8296 -0.4702 -1.8121 27255.0742 51907.793)" gradientUnits="userSpaceOnUse">
			<stop  offset="0" style="stop-color:#0049D4"/>
			<stop  offset="1" style="stop-color:#FFFFFF"/>
		</radialGradient>
		<path style="opacity:0.62;fill:url(#SVGID_00000095322984843928593950000013795234546885831840_);" d="M-524.566,66.354
			c649.779,68.035-126.064,805.568,382.013,705.764c431.357,257.359,5678.876,4965.588,4583.119,5847.591
			c-1642.936,1322.441,540.833,2477.112,716.474,2852.296c152.537,325.83-5200.875-5218.985-5902.021-6601.514
			C-1520.354,1341.603-2261.881-115.551-524.566,66.354z"/>
		
			<radialGradient id="SVGID_00000106847339405984156600000005495953994433577131_" cx="14729.6475" cy="18292.3125" r="2645.9199" gradientTransform="matrix(-0.9346 -0.8378 -0.2025 -1.4481 19185.3184 43070.168)" gradientUnits="userSpaceOnUse">
			<stop  offset="0" style="stop-color:#0049D4"/>
			<stop  offset="1" style="stop-color:#FFFFFF"/>
		</radialGradient>
		<path style="opacity:0.62;fill:url(#SVGID_00000106847339405984156600000005495953994433577131_);" d="M-762.781-69.874
			C-146.951-6.523-536.938,936.303,37.887,609.067c451.619,109.41,5461.845,4940.415,4508.209,5772.85
			c-1433.928,1251.685,167.686,2471.338,281.636,2845.981C4929.32,9561.895,479.575,4113.609-281.326,2728.904
			C-1099.644,1239.706-2363.651-234.556-762.781-69.874z"/>
		
			<radialGradient id="SVGID_00000123420126792415244630000000262576657593394364_" cx="13615.0713" cy="17551.1445" r="3095.5544" gradientTransform="matrix(-0.7928 -0.846 0.0652 -1.0842 11115.5615 34231.8281)" gradientUnits="userSpaceOnUse">
			<stop  offset="0" style="stop-color:#0049D4"/>
			<stop  offset="1" style="stop-color:#FFFFFF"/>
		</radialGradient>
		<path style="opacity:0.62;fill:url(#SVGID_00000123420126792415244630000000262576657593394364_);" d="M-1084.213-206.047
			c581.886,58.648,577.75,1206.786,1219.322,652.117c471.882-38.539,5246.142,4914.179,4433.3,5698.108
			c-1223.353,1179.839-206.92,2467.405-153.202,2839.664C4464.823,9327.674,921.069,3973.831,99.113,2587.37
			C-760.562,1137.285-2548.62-353.644-1084.213-206.047z"/>
		
			<radialGradient id="SVGID_00000059302204872383624930000006819411627926090641_" cx="11260.4473" cy="17345.7695" r="3646.1223" gradientTransform="matrix(-0.6509 -0.8542 0.3329 -0.7202 3046.4319 25394.1992)" gradientUnits="userSpaceOnUse">
			<stop  offset="0" style="stop-color:#0049D4"/>
			<stop  offset="1" style="stop-color:#FFFFFF"/>
		</radialGradient>
		<path style="opacity:0.62;fill:url(#SVGID_00000059302204872383624930000006819411627926090641_);" d="M-1459.727-342.15
			C-911.78-288.23-530.07,1065.244,178.25,283.143C670.394,96.655,5210.379,5169.385,4536.641,5906.511
			c-1010.937,1106.047-583.703,2464.624-588.04,2833.349c-4.173,354.732-2638.845-4906.312-3523.131-6293.953
			C-474.114,1034.259-2787.649-472.824-1459.727-342.15z"/>
		
			<radialGradient id="SVGID_00000108281459809601504210000002697512109072456323_" cx="7841.0234" cy="18019.7773" r="4010.3108" gradientTransform="matrix(-0.5091 -0.8624 0.6007 -0.3562 -5022.6133 16556.5723)" gradientUnits="userSpaceOnUse">
			<stop  offset="0" style="stop-color:#0049D4"/>
			<stop  offset="1" style="stop-color:#FFFFFF"/>
		</radialGradient>
		<path style="opacity:0.62;fill:url(#SVGID_00000108281459809601504210000002697512109072456323_);" d="M-1816.008-478.149
			c514.015,49.16,1122.903,1463.362,2056.632,598.47c448.902-415.808,4820.174,4855.525,4283.482,5548.626
			c-796.629,1028.792-962.82,2461.964-1022.878,2827.033c-60.17,365.745-1782.319-4803.326-2730.168-6191.433
			C-167.134,930.58-3007.42-592.094-1816.008-478.149z"/>
		
			<radialGradient id="SVGID_00000097467570869584744480000017751072158936508840_" cx="4626.1387" cy="19043.3125" r="4047.1067" gradientTransform="matrix(-0.3673 -0.8707 0.8684 0.0078 -13092.3691 7718.3164)" gradientUnits="userSpaceOnUse">
			<stop  offset="0" style="stop-color:#0049D4"/>
			<stop  offset="1" style="stop-color:#FFFFFF"/>
		</radialGradient>
		<path style="opacity:0.62;fill:url(#SVGID_00000097467570869584744480000017751072158936508840_);" d="M-2159.688-614
			c480.092,44.353,1492.944,1700.247,2475.287,571.646c471.812-542.058,4610.378,4820.23,4208.573,5473.885
			c-581.187,945.473-1343.831,2458.485-1457.716,2820.717c-118.192,375.93-924.611-4701.188-1937.204-6088.912
			C153.591,826.227-3214.561-711.454-2159.688-614z"/>
		
			<radialGradient id="SVGID_00000018955341093506617290000010615412936284115888_" cx="3034.5818" cy="20443.207" r="3865.0313" gradientTransform="matrix(-0.2255 -0.8789 1.1361 0.3718 -21162.125 -1119.3115)" gradientUnits="userSpaceOnUse">
			<stop  offset="0" style="stop-color:#0049D4"/>
			<stop  offset="1" style="stop-color:#FFFFFF"/>
		</radialGradient>
		<path style="opacity:0.62;fill:url(#SVGID_00000018955341093506617290000010615412936284115888_);" d="M-2494.453-749.676
			c446.179,39.479,1867.954,1929.489,2893.942,544.823c499.186-673.699,4401.725,4777.637,4133.664,5399.144
			c-367.56,852.197-1725.994,2453.665-1892.554,2814.401c-177.633,384.716-65.788-4600.014-1144.241-5986.392
			C484.223,721.177-3412.753-830.93-2494.453-749.676z"/>
		
			<radialGradient id="SVGID_00000175288936775085020730000001149585518564480132_" cx="2916.4634" cy="21671.0273" r="3624.7244" gradientTransform="matrix(-0.0836 -0.8871 1.4038 0.7358 -29231.2559 -9956.9395)" gradientUnits="userSpaceOnUse">
			<stop  offset="0" style="stop-color:#0049D4"/>
			<stop  offset="1" style="stop-color:#FFFFFF"/>
		</radialGradient>
		<path style="opacity:0.62;fill:url(#SVGID_00000175288936775085020730000001149585518564480132_);" d="M-2821.595-885.167
			c412.281,34.503,2244.246,2152.671,3312.597,517.999c528.797-809.107,4076.296,4710.914,4058.754,5324.403
			c-298.695,701.951-2108.598,2447.411-2327.392,2808.085c-237.786,391.982,794.08-4499.903-351.278-5883.872
			C823.32,615.404-3603.283-950.586-2821.595-885.167z"/>
		
			<radialGradient id="SVGID_00000142156644272094232520000018255402471313151129_" cx="3387.8484" cy="22558.9297" r="3313.6401" gradientTransform="matrix(0.0582 -0.8953 1.6716 1.0998 -37300.3008 -18794.5684)" gradientUnits="userSpaceOnUse">
			<stop  offset="0" style="stop-color:#0049D4"/>
			<stop  offset="1" style="stop-color:#FFFFFF"/>
		</radialGradient>
		<path style="opacity:0.62;fill:url(#SVGID_00000142156644272094232520000018255402471313151129_);" d="M-3148.978-1020.484
			c378.401,29.359,2620.402,2371.461,3731.251,491.175c559.541-947.109,3850.396,4678.218,3983.845,5249.662
			c-102.235,618.943-2491.147,2439.902-2762.23,2801.769c-298.086,397.913,1654.91-4400.944,441.685-5781.351
			C1162.874,508.876-3794.006-1070.529-3148.978-1020.484z"/>
		
			<radialGradient id="SVGID_00000021812086423495983130000016654086587618127243_" cx="4053.5769" cy="23153.7324" r="3019.6531" gradientTransform="matrix(0.2 -0.9035 1.9393 1.4638 -45370.0547 -27632.1953)" gradientUnits="userSpaceOnUse">
			<stop  offset="0" style="stop-color:#0049D4"/>
			<stop  offset="1" style="stop-color:#FFFFFF"/>
		</radialGradient>
		<path style="opacity:0.62;fill:url(#SVGID_00000021812086423495983130000016654086587618127243_);" d="M-3475.221-1155.644
			c344.548,23.909,2995.946,2587.117,4149.906,464.352c590.864-1086.923,3712.187,4607.065,3908.937,5174.92
			c178.147,514.167-2873.37,2431.418-3197.069,2795.454c-358.181,402.814,2516.615-4303.206,1234.649-5678.831
			C1504.125,401.563-3983.539-1190.917-3475.221-1155.644z"/>
		
			<radialGradient id="SVGID_00000042001773838321325280000017164241348992270257_" cx="4712.6748" cy="23541.4004" r="2763.8518" gradientTransform="matrix(0.3419 -0.9117 2.207 1.8277 -53439.1875 -36470.5352)" gradientUnits="userSpaceOnUse">
			<stop  offset="0" style="stop-color:#0049D4"/>
			<stop  offset="1" style="stop-color:#FFFFFF"/>
		</radialGradient>
		<path style="opacity:0.62;fill:url(#SVGID_00000042001773838321325280000017164241348992270257_);" d="M-3800.499-1290.671
			c310.733,17.814,3370.772,2800.517,4568.561,437.528c622.483-1228.029,3438.573,4579.862,3834.027,5100.18
			c325.652,428.475-3255.155,2422.227-3631.907,2789.137c-417.903,406.987,3379.102-4206.742,2027.612-5576.311
			C1846.768,293.44-4172.06-1311.973-3800.499-1290.671z"/>
		
			<radialGradient id="SVGID_00000065034220356542294240000010382310606171507383_" cx="5309.9741" cy="23794.7754" r="2551.5938" gradientTransform="matrix(0.4837 -0.9199 2.4747 2.1917 -61508.9414 -45308.1641)" gradientUnits="userSpaceOnUse">
			<stop  offset="0" style="stop-color:#0049D4"/>
			<stop  offset="1" style="stop-color:#FFFFFF"/>
		</radialGradient>
		<path style="opacity:0.62;fill:url(#SVGID_00000065034220356542294240000010382310606171507383_);" d="M-4125.415-1425.592
			c276.972,9.943,3744.912,3012.265,4987.216,410.704c654.245-1370.082,3172.695,4580.13,3759.118,5025.438
			c487.143,369.919-3636.492,2412.548-4066.745,2782.822c-477.2,410.676,4242.277-4111.589,2820.575-5473.79
			C2190.078,184.491-4360.221-1434.022-4125.415-1425.592z"/>
	</g>
</g>
</svg>
