<svg width="992" height="159" viewBox="0 0 992 159" fill="none" xmlns="http://www.w3.org/2000/svg">
<path d="M371.762 137V131.891H391.773V66.5352H371.762V61.426H417.107V66.5352H397.095V131.891H417.107V137H371.762Z" fill="#C5FF41"/>
<path d="M308.364 137L332.526 61.426H339.339L363.501 137H357.966L335.933 66.4288L313.899 137H308.364ZM319.115 113.157L320.924 108.048H350.941L352.75 113.157H319.115Z" fill="#C5FF41"/>
<path d="M247.317 137.056C240.613 137.056 235.303 134.836 231.385 130.395C227.554 125.868 225.639 119.469 225.639 111.198V65.7516H241.049V107.15C241.049 112.983 242.006 117.249 243.922 119.948C245.924 122.56 248.928 123.866 252.933 123.866C257.112 123.866 260.507 122.386 263.119 119.426C265.818 116.378 267.167 112.112 267.167 106.627V65.7516H282.708V135.489H268.343L268.082 116.291L270.04 116.944C268.909 123.387 266.384 128.349 262.466 131.832C258.548 135.314 253.499 137.056 247.317 137.056Z" fill="#C5FF41"/>
<path d="M172.809 138V125.463H193.182C196.839 125.463 199.537 124.636 201.279 122.982C203.107 121.327 204.021 118.411 204.021 114.232V48.6739H219.431V115.015C219.431 122.416 217.385 128.075 213.293 131.993C209.288 135.997 203.107 138 194.749 138H172.809ZM173.593 61.2109V48.6739H211.987V61.2109H173.593Z" fill="#C5FF41"/>
<path d="M136.946 137.056C130.417 137.056 124.671 135.576 119.708 132.615C114.833 129.655 111.045 125.433 108.346 119.948C105.648 114.463 104.298 108.02 104.298 100.62C104.298 93.2197 105.648 86.7771 108.346 81.2922C111.045 75.8072 114.833 71.5847 119.708 68.6246C124.671 65.6645 130.417 64.1844 136.946 64.1844C143.476 64.1844 149.179 65.6645 154.054 68.6246C159.017 71.5847 162.848 75.8072 165.546 81.2922C168.245 86.69 169.595 93.1327 169.595 100.62C169.595 108.02 168.245 114.463 165.546 119.948C162.848 125.433 159.017 129.655 154.054 132.615C149.179 135.576 143.476 137.056 136.946 137.056ZM136.946 123.213C142.257 123.213 146.349 121.254 149.222 117.336C152.095 113.331 153.532 107.759 153.532 100.62C153.532 93.4809 152.095 87.9524 149.222 84.0346C146.349 80.0298 142.257 78.0273 136.946 78.0273C131.636 78.0273 127.544 80.0298 124.671 84.0346C121.798 87.9524 120.361 93.4809 120.361 100.62C120.361 107.759 121.798 113.331 124.671 117.336C127.544 121.254 131.636 123.213 136.946 123.213Z" fill="#C5FF41"/>
<path d="M56.8164 123.474L42.1899 62.6174L44.1489 62.3562V135.489H29V42.7672H48.589L64.652 107.28H59.6895L75.7525 42.7672H95.3415V135.489H80.1927V62.3562L82.1516 62.6174L67.5251 123.474H56.8164Z" fill="#C5FF41"/>
<path d="M937.254 139.344C931.504 139.344 926.688 138.448 922.806 136.656C918.923 134.789 915.936 132.363 913.846 129.376C911.83 126.315 910.635 122.917 910.262 119.184L925.27 118.512C925.942 120.976 927.211 122.955 929.078 124.448C930.944 125.867 933.707 126.576 937.366 126.576C940.875 126.576 943.451 126.165 945.094 125.344C946.736 124.523 947.558 123.291 947.558 121.648C947.558 120.453 947.259 119.52 946.662 118.848C946.064 118.101 944.944 117.429 943.302 116.832C941.659 116.16 939.195 115.525 935.91 114.928C929.862 113.659 925.046 112.24 921.462 110.672C917.952 109.029 915.414 107.013 913.846 104.624C912.352 102.16 911.606 99.0987 911.606 95.44C911.606 92.0053 912.502 88.8693 914.294 86.032C916.086 83.1947 918.811 80.9173 922.47 79.2C926.128 77.4827 930.72 76.624 936.246 76.624C942.219 76.624 947.035 77.5947 950.694 79.536C954.427 81.4773 957.227 83.9787 959.094 87.04C960.96 90.1013 962.155 93.3493 962.678 96.784L947.558 97.456C947.259 95.8133 946.624 94.3947 945.654 93.2C944.683 92.0053 943.414 91.072 941.846 90.4C940.278 89.728 938.411 89.392 936.246 89.392C933.035 89.392 930.72 90.0267 929.302 91.296C927.883 92.4907 927.174 93.872 927.174 95.44C927.174 96.8587 927.547 98.016 928.294 98.912C929.04 99.808 930.384 100.592 932.326 101.264C934.342 101.936 937.142 102.645 940.726 103.392C946.55 104.512 951.067 105.856 954.278 107.424C957.488 108.917 959.766 110.784 961.11 113.024C962.454 115.189 963.126 117.952 963.126 121.312C963.126 125.045 962.08 128.256 959.99 130.944C957.974 133.632 955.024 135.723 951.142 137.216C947.334 138.635 942.704 139.344 937.254 139.344Z" fill="#C5FF41"/>
<path d="M877.713 138C870.993 138 866.028 136.469 862.817 133.408C859.681 130.347 858.113 125.605 858.113 119.184V63.856H873.345V117.728C873.345 120.491 873.98 122.544 875.249 123.888C876.593 125.232 878.647 125.904 881.409 125.904H895.521V138H877.713ZM840.865 90.064V77.968H895.521V90.064H840.865Z" fill="#C5FF41"/>
<path d="M776.845 138V77.968H790.733L791.181 94.32L789.613 93.648C790.36 89.7653 791.629 86.5547 793.421 84.016C795.288 81.4773 797.565 79.6107 800.253 78.416C802.941 77.2213 805.928 76.624 809.213 76.624C813.544 76.624 817.053 77.5947 819.741 79.536C822.504 81.4773 824.557 84.128 825.901 87.488C827.245 90.848 827.917 94.7307 827.917 99.136V138H812.685V102.608C812.685 98.0533 811.901 94.7307 810.333 92.64C808.84 90.5493 806.563 89.504 803.501 89.504C801.411 89.504 799.507 90.0267 797.789 91.072C796.072 92.1173 794.691 93.648 793.645 95.664C792.6 97.68 792.077 100.219 792.077 103.28V138H776.845Z" fill="#C5FF41"/>
<path d="M735.673 139.344C730.073 139.344 725.108 138.075 720.777 135.536C716.521 132.923 713.161 129.264 710.697 124.56C708.308 119.856 707.113 114.331 707.113 107.984C707.113 101.787 708.308 96.336 710.697 91.632C713.086 86.928 716.409 83.2693 720.665 80.656C724.921 77.968 729.849 76.624 735.449 76.624C740.974 76.624 745.828 77.9307 750.009 80.544C754.265 83.1573 757.588 86.8533 759.977 91.632C762.366 96.336 763.561 101.899 763.561 108.32V112.128H722.793C723.166 116.608 724.51 120.043 726.825 122.432C729.214 124.747 732.276 125.904 736.009 125.904C738.772 125.904 741.124 125.269 743.065 124C745.006 122.656 746.35 120.864 747.097 118.624L762.329 119.632C760.313 125.904 757.028 130.757 752.473 134.192C747.993 137.627 742.393 139.344 735.673 139.344ZM723.017 101.712H747.321C746.948 97.8293 745.678 94.9173 743.513 92.976C741.348 91.0347 738.622 90.064 735.337 90.064C731.902 90.064 729.102 91.072 726.937 93.088C724.846 95.0293 723.54 97.904 723.017 101.712Z" fill="#C5FF41"/>
<path d="M637.605 138V77.968H650.037L650.485 91.744L649.253 91.408C650.149 86.48 651.642 82.784 653.733 80.32C655.898 77.856 658.586 76.624 661.797 76.624C665.53 76.624 668.218 77.8933 669.861 80.432C671.578 82.896 672.735 86.704 673.333 91.856H671.653C672.474 86.8533 674.117 83.0827 676.581 80.544C679.045 77.9307 682.069 76.624 685.653 76.624C690.058 76.624 693.306 78.2293 695.397 81.44C697.487 84.576 698.533 89.5413 698.533 96.336V138H684.309V99.36C684.309 95.4773 683.935 92.864 683.189 91.52C682.517 90.176 681.434 89.504 679.941 89.504C678.895 89.504 677.962 89.84 677.141 90.512C676.394 91.184 675.797 92.2667 675.349 93.76C674.901 95.1787 674.677 97.0827 674.677 99.472V138H661.461V99.36C661.461 95.6267 661.125 93.0507 660.453 91.632C659.781 90.2133 658.661 89.504 657.093 89.504C656.047 89.504 655.114 89.84 654.293 90.512C653.471 91.184 652.837 92.2667 652.389 93.76C652.015 95.1787 651.829 97.0827 651.829 99.472V138H637.605Z" fill="#C5FF41"/>
<path d="M570.448 138V77.968H582.88L583.328 91.744L582.096 91.408C582.992 86.48 584.486 82.784 586.576 80.32C588.742 77.856 591.43 76.624 594.64 76.624C598.374 76.624 601.062 77.8933 602.704 80.432C604.422 82.896 605.579 86.704 606.176 91.856H604.496C605.318 86.8533 606.96 83.0827 609.424 80.544C611.888 77.9307 614.912 76.624 618.496 76.624C622.902 76.624 626.15 78.2293 628.24 81.44C630.331 84.576 631.376 89.5413 631.376 96.336V138H617.152V99.36C617.152 95.4773 616.779 92.864 616.032 91.52C615.36 90.176 614.278 89.504 612.784 89.504C611.739 89.504 610.806 89.84 609.984 90.512C609.238 91.184 608.64 92.2667 608.192 93.76C607.744 95.1787 607.52 97.0827 607.52 99.472V138H594.304V99.36C594.304 95.6267 593.968 93.0507 593.296 91.632C592.624 90.2133 591.504 89.504 589.936 89.504C588.891 89.504 587.958 89.84 587.136 90.512C586.315 91.184 585.68 92.2667 585.232 93.76C584.859 95.1787 584.672 97.0827 584.672 99.472V138H570.448Z" fill="#C5FF41"/>
<path d="M533.756 139.344C528.082 139.344 523.116 138.075 518.86 135.536C514.604 132.923 511.282 129.264 508.892 124.56C506.503 119.856 505.308 114.331 505.308 107.984C505.308 101.563 506.503 96.0373 508.892 91.408C511.282 86.704 514.604 83.0827 518.86 80.544C523.116 77.9307 528.082 76.624 533.756 76.624C539.431 76.624 544.396 77.9307 548.652 80.544C552.908 83.0827 556.231 86.704 558.62 91.408C561.01 96.0373 562.204 101.563 562.204 107.984C562.204 114.331 561.01 119.856 558.62 124.56C556.231 129.264 552.908 132.923 548.652 135.536C544.396 138.075 539.431 139.344 533.756 139.344ZM533.756 125.904C537.788 125.904 540.887 124.373 543.052 121.312C545.292 118.176 546.412 113.733 546.412 107.984C546.412 102.16 545.292 97.7173 543.052 94.656C540.887 91.5947 537.788 90.064 533.756 90.064C529.724 90.064 526.588 91.5947 524.348 94.656C522.183 97.7173 521.1 102.16 521.1 107.984C521.1 113.733 522.183 118.176 524.348 121.312C526.588 124.373 529.724 125.904 533.756 125.904Z" fill="#C5FF41"/>
<path d="M467.048 139.792C460.627 139.792 455.139 138.149 450.584 134.864C446.029 131.504 442.557 126.725 440.168 120.528C437.779 114.331 436.584 106.939 436.584 98.352C436.584 89.7653 437.779 82.3733 440.168 76.176C442.557 69.904 446.029 65.088 450.584 61.728C455.139 58.368 460.627 56.688 467.048 56.688C474.813 56.688 481.197 59.264 486.2 64.416C491.203 69.4933 494.413 76.736 495.832 86.144L479.48 86.928C478.659 81.7013 477.165 77.7067 475 74.944C472.835 72.1813 470.184 70.8 467.048 70.8C464.061 70.8 461.523 71.8827 459.432 74.048C457.341 76.1387 455.736 79.2373 454.616 83.344C453.496 87.4506 452.936 92.4533 452.936 98.352C452.936 104.176 453.496 109.141 454.616 113.248C455.736 117.28 457.341 120.379 459.432 122.544C461.523 124.635 464.061 125.68 467.048 125.68C470.259 125.68 472.984 124.224 475.224 121.312C477.539 118.325 479.069 114.032 479.816 108.432L496.056 109.216C494.787 118.923 491.613 126.464 486.536 131.84C481.533 137.141 475.037 139.792 467.048 139.792Z" fill="#C5FF41"/>
<rect x="202" y="28" width="14" height="14" fill="#FF4517"/>
</svg>
