<svg width="398" height="64" viewBox="0 0 398 64" fill="none" xmlns="http://www.w3.org/2000/svg">
<path d="M149.155 54.9657V52.9159H157.183V26.6946H149.155V24.6447H167.347V26.6946H159.318V52.9159H167.347V54.9657H149.155Z" fill="#212220"/>
<path d="M123.719 54.9657L133.413 24.6447H136.146L145.84 54.9657H143.62L134.78 26.6519L125.939 54.9657H123.719ZM128.032 45.3997L128.758 43.3498H140.801L141.527 45.3997H128.032Z" fill="#212220"/>
<path d="M99.226 54.9881C96.5363 54.9881 94.4056 54.0973 92.8337 52.3159C91.2968 50.4995 90.5283 47.9321 90.5283 44.6138V26.3802H96.711V42.9895C96.711 45.3298 97.0952 47.0414 97.8637 48.1243C98.6671 49.1722 99.8722 49.6961 101.479 49.6961C103.156 49.6961 104.518 49.1023 105.566 47.9147C106.649 46.6921 107.19 44.9805 107.19 42.7799V26.3802H113.425V54.3593H107.662L107.557 46.6572L108.343 46.9192C107.889 49.504 106.876 51.495 105.304 52.8922C103.732 54.2895 101.706 54.9881 99.226 54.9881Z" fill="#212220"/>
<path d="M69.3328 55.3669V50.337H77.5065C78.9735 50.337 80.0564 50.0051 80.755 49.3414C81.4885 48.6778 81.8553 47.5076 81.8553 45.8309V19.5285H88.0379V46.1453C88.0379 49.1144 87.2171 51.3849 85.5753 52.9567C83.9685 54.5635 81.4885 55.3669 78.1352 55.3669H69.3328ZM69.6471 24.5584V19.5285H85.0514V24.5584H69.6471Z" fill="#212220"/>
<path d="M54.9443 54.988C52.3245 54.988 50.0191 54.3942 48.0281 53.2066C46.072 52.019 44.5526 50.3249 43.4697 48.1243C42.3869 45.9236 41.8455 43.3388 41.8455 40.3697C41.8455 37.4007 42.3869 34.8158 43.4697 32.6152C44.5526 30.4146 46.072 28.7205 48.0281 27.5329C50.0191 26.3452 52.3245 25.7514 54.9443 25.7514C57.5641 25.7514 59.852 26.3452 61.8081 27.5329C63.7991 28.7205 65.3361 30.4146 66.4189 32.6152C67.5017 34.7809 68.0432 37.3657 68.0432 40.3697C68.0432 43.3388 67.5017 45.9236 66.4189 48.1243C65.3361 50.3249 63.7991 52.019 61.8081 53.2066C59.852 54.3942 57.5641 54.988 54.9443 54.988ZM54.9443 49.4341C57.0751 49.4341 58.7168 48.6482 59.8695 47.0763C61.0222 45.4696 61.5985 43.234 61.5985 40.3697C61.5985 37.5055 61.0222 35.2874 59.8695 33.7155C58.7168 32.1087 57.0751 31.3053 54.9443 31.3053C52.8136 31.3053 51.1718 32.1087 50.0191 33.7155C48.8664 35.2874 48.2901 37.5055 48.2901 40.3697C48.2901 43.234 48.8664 45.4696 50.0191 47.0763C51.1718 48.6482 52.8136 49.4341 54.9443 49.4341Z" fill="#212220"/>
<path d="M22.7952 49.539L16.9269 25.1227L17.7129 25.0179V54.3593H11.635V17.1586H19.4943L25.939 43.0419H23.9479L30.3926 17.1586H38.2519V54.3593H32.174V25.0179L32.9599 25.1227L27.0917 49.539H22.7952Z" fill="#212220"/>
<path d="M376.035 55.9062C373.729 55.9062 371.796 55.5467 370.239 54.8277C368.681 54.0788 367.483 53.1052 366.644 51.9069C365.835 50.6787 365.356 49.3156 365.206 47.8178L371.227 47.5482C371.497 48.5367 372.006 49.3306 372.755 49.9297C373.504 50.4989 374.612 50.7835 376.08 50.7835C377.488 50.7835 378.522 50.6188 379.181 50.2892C379.84 49.9597 380.169 49.4654 380.169 48.8064C380.169 48.327 380.049 47.9526 379.81 47.683C379.57 47.3834 379.121 47.1138 378.462 46.8741C377.803 46.6045 376.814 46.3499 375.496 46.1102C373.07 45.601 371.137 45.0318 369.699 44.4027C368.291 43.7436 367.273 42.9348 366.644 41.9762C366.045 40.9876 365.745 39.7593 365.745 38.2915C365.745 36.9134 366.105 35.6552 366.823 34.5169C367.542 33.3785 368.636 32.4648 370.104 31.7758C371.572 31.0868 373.414 30.7423 375.631 30.7423C378.027 30.7423 379.96 31.1317 381.428 31.9106C382.925 32.6895 384.049 33.6931 384.798 34.9213C385.547 36.1495 386.026 37.4527 386.236 38.8307L380.169 39.1003C380.049 38.4412 379.795 37.8721 379.405 37.3927C379.016 36.9134 378.507 36.539 377.878 36.2694C377.249 35.9997 376.5 35.8649 375.631 35.8649C374.343 35.8649 373.414 36.1196 372.845 36.6288C372.276 37.1082 371.991 37.6624 371.991 38.2915C371.991 38.8606 372.141 39.325 372.44 39.6845C372.74 40.0439 373.279 40.3585 374.058 40.6281C374.867 40.8977 375.99 41.1823 377.428 41.4819C379.765 41.9312 381.577 42.4705 382.865 43.0995C384.154 43.6987 385.067 44.4476 385.607 45.3463C386.146 46.2151 386.415 47.3235 386.415 48.6715C386.415 50.1694 385.996 51.4576 385.157 52.536C384.348 53.6145 383.165 54.4533 381.607 55.0524C380.079 55.6216 378.222 55.9062 376.035 55.9062Z" fill="#212220"/>
<path d="M352.147 55.3669C349.451 55.3669 347.459 54.7528 346.171 53.5246C344.912 52.2963 344.283 50.3941 344.283 47.8178V25.6196H350.395V47.2336C350.395 48.342 350.649 49.1658 351.158 49.7051C351.698 50.2443 352.522 50.5139 353.63 50.5139H359.292V55.3669H352.147ZM337.363 36.1345V31.2815H359.292V36.1345H337.363Z" fill="#212220"/>
<path d="M311.678 55.3669V31.2815H317.25L317.429 37.8421L316.8 37.5725C317.1 36.0147 317.609 34.7266 318.328 33.708C319.077 32.6895 319.991 31.9406 321.069 31.4613C322.148 30.9819 323.346 30.7423 324.664 30.7423C326.402 30.7423 327.81 31.1317 328.888 31.9106C329.996 32.6895 330.82 33.753 331.359 35.101C331.899 36.4491 332.168 38.0069 332.168 39.7743V55.3669H326.057V41.1673C326.057 39.3399 325.743 38.0069 325.113 37.1681C324.514 36.3293 323.601 35.9099 322.372 35.9099C321.534 35.9099 320.77 36.1196 320.081 36.539C319.392 36.9584 318.837 37.5725 318.418 38.3813C317.999 39.1902 317.789 40.2087 317.789 41.4369V55.3669H311.678Z" fill="#212220"/>
<path d="M295.159 55.9062C292.912 55.9062 290.92 55.3969 289.183 54.3784C287.475 53.3299 286.127 51.862 285.139 49.9747C284.18 48.0874 283.701 45.8706 283.701 43.3242C283.701 40.8378 284.18 38.6509 285.139 36.7636C286.097 34.8764 287.43 33.4085 289.138 32.36C290.845 31.2815 292.823 30.7423 295.069 30.7423C297.286 30.7423 299.233 31.2665 300.911 32.315C302.619 33.3635 303.952 34.8464 304.91 36.7636C305.869 38.6509 306.348 40.8827 306.348 43.459V44.9868H289.992C290.141 46.7843 290.681 48.1623 291.609 49.1209C292.568 50.0496 293.796 50.5139 295.294 50.5139C296.402 50.5139 297.346 50.2593 298.125 49.75C298.904 49.2108 299.443 48.4918 299.743 47.5931L305.854 47.9975C305.045 50.5139 303.727 52.4611 301.9 53.8391C300.102 55.2172 297.855 55.9062 295.159 55.9062ZM290.082 40.8078H299.833C299.683 39.2501 299.173 38.0818 298.305 37.3029C297.436 36.524 296.343 36.1345 295.024 36.1345C293.646 36.1345 292.523 36.539 291.654 37.3478C290.815 38.1267 290.291 39.28 290.082 40.8078Z" fill="#212220"/>
<path d="M255.813 55.3669V31.2815H260.801L260.981 36.8086L260.487 36.6738C260.846 34.6966 261.445 33.2137 262.284 32.2252C263.153 31.2366 264.231 30.7423 265.519 30.7423C267.017 30.7423 268.096 31.2516 268.755 32.2701C269.444 33.2587 269.908 34.7865 270.148 36.8535H269.474C269.803 34.8464 270.462 33.3336 271.451 32.315C272.439 31.2665 273.653 30.7423 275.091 30.7423C276.858 30.7423 278.161 31.3864 279 32.6745C279.839 33.9327 280.258 35.9248 280.258 38.6509V55.3669H274.551V39.8642C274.551 38.3064 274.402 37.2579 274.102 36.7187C273.832 36.1795 273.398 35.9099 272.799 35.9099C272.379 35.9099 272.005 36.0447 271.675 36.3143C271.376 36.5839 271.136 37.0183 270.956 37.6174C270.777 38.1866 270.687 38.9505 270.687 39.9091V55.3669H265.384V39.8642C265.384 38.3663 265.25 37.3328 264.98 36.7636C264.71 36.1945 264.261 35.9099 263.632 35.9099C263.213 35.9099 262.838 36.0447 262.509 36.3143C262.179 36.5839 261.924 37.0183 261.745 37.6174C261.595 38.1866 261.52 38.9505 261.52 39.9091V55.3669H255.813Z" fill="#212220"/>
<path d="M228.869 55.3669V31.2815H233.857L234.037 36.8086L233.543 36.6738C233.902 34.6966 234.501 33.2137 235.34 32.2252C236.209 31.2366 237.287 30.7423 238.575 30.7423C240.073 30.7423 241.152 31.2516 241.811 32.2701C242.5 33.2587 242.964 34.7865 243.204 36.8535H242.53C242.859 34.8464 243.518 33.3336 244.507 32.315C245.496 31.2665 246.709 30.7423 248.147 30.7423C249.914 30.7423 251.217 31.3864 252.056 32.6745C252.895 33.9327 253.314 35.9248 253.314 38.6509V55.3669H247.607V39.8642C247.607 38.3064 247.458 37.2579 247.158 36.7187C246.889 36.1795 246.454 35.9099 245.855 35.9099C245.436 35.9099 245.061 36.0447 244.732 36.3143C244.432 36.5839 244.192 37.0183 244.013 37.6174C243.833 38.1866 243.743 38.9505 243.743 39.9091V55.3669H238.441V39.8642C238.441 38.3663 238.306 37.3328 238.036 36.7636C237.767 36.1945 237.317 35.9099 236.688 35.9099C236.269 35.9099 235.894 36.0447 235.565 36.3143C235.235 36.5839 234.981 37.0183 234.801 37.6174C234.651 38.1866 234.576 38.9505 234.576 39.9091V55.3669H228.869Z" fill="#212220"/>
<path d="M214.148 55.9062C211.871 55.9062 209.879 55.3969 208.172 54.3784C206.464 53.3299 205.131 51.862 204.173 49.9747C203.214 48.0874 202.735 45.8706 202.735 43.3242C202.735 40.7479 203.214 38.5311 204.173 36.6738C205.131 34.7865 206.464 33.3336 208.172 32.315C209.879 31.2665 211.871 30.7423 214.148 30.7423C216.425 30.7423 218.417 31.2665 220.125 32.315C221.832 33.3336 223.165 34.7865 224.124 36.6738C225.083 38.5311 225.562 40.7479 225.562 43.3242C225.562 45.8706 225.083 48.0874 224.124 49.9747C223.165 51.862 221.832 53.3299 220.125 54.3784C218.417 55.3969 216.425 55.9062 214.148 55.9062ZM214.148 50.5139C215.766 50.5139 217.009 49.8998 217.878 48.6715C218.777 47.4134 219.226 45.6309 219.226 43.3242C219.226 40.9876 218.777 39.2051 217.878 37.9769C217.009 36.7487 215.766 36.1345 214.148 36.1345C212.531 36.1345 211.272 36.7487 210.374 37.9769C209.505 39.2051 209.071 40.9876 209.071 43.3242C209.071 45.6309 209.505 47.4134 210.374 48.6715C211.272 49.8998 212.531 50.5139 214.148 50.5139Z" fill="#212220"/>
<path d="M187.384 56.0859C184.808 56.0859 182.606 55.4268 180.779 54.1087C178.951 52.7607 177.558 50.8434 176.6 48.357C175.641 45.8706 175.162 42.9048 175.162 39.4598C175.162 36.0147 175.641 33.049 176.6 30.5626C177.558 28.0462 178.951 26.1139 180.779 24.7659C182.606 23.4178 184.808 22.7438 187.384 22.7438C190.5 22.7438 193.061 23.7773 195.068 25.8443C197.075 27.8814 198.363 30.7872 198.932 34.5618L192.372 34.8764C192.042 32.7794 191.443 31.1767 190.574 30.0683C189.706 28.9599 188.642 28.4056 187.384 28.4056C186.186 28.4056 185.167 28.84 184.328 29.7088C183.49 30.5476 182.846 31.7908 182.396 33.4384C181.947 35.0861 181.722 37.0932 181.722 39.4598C181.722 41.7964 181.947 43.7886 182.396 45.4362C182.846 47.0539 183.49 48.2971 184.328 49.1658C185.167 50.0046 186.186 50.424 187.384 50.424C188.672 50.424 189.766 49.8399 190.664 48.6715C191.593 47.4733 192.207 45.7507 192.507 43.504L199.022 43.8185C198.513 47.7129 197.24 50.7386 195.203 52.8955C193.196 55.0224 190.589 56.0859 187.384 56.0859Z" fill="#212220"/>
<rect x="81.0444" y="11.2339" width="5.61694" height="5.61694" fill="#FF4517"/>
</svg>
